<svg width="256" height="256" viewBox="0 0 256 256" fill="none" xmlns="http://www.w3.org/2000/svg">
<rect width="256" height="256" fill="white"/>
<g clip-path="url(#clip0_266_15)">
<path d="M127.994 223.821C109.041 223.821 90.5138 218.201 74.7551 207.671C58.9963 197.142 46.7139 182.175 39.461 164.665C32.208 147.155 30.3103 127.887 34.0078 109.299C37.7054 90.7101 46.832 73.6353 60.2337 60.2336C73.6354 46.8319 90.7102 37.7052 109.299 34.0077C127.888 30.3102 147.155 32.2079 164.665 39.4608C182.176 46.7138 197.142 58.9962 207.671 74.7549C218.201 90.5136 223.821 109.041 223.821 127.994C223.821 140.578 221.343 153.039 216.527 164.665C211.711 176.292 204.652 186.855 195.754 195.754C186.856 204.652 176.292 211.711 164.665 216.527C153.039 221.342 140.578 223.821 127.994 223.821ZM127.994 80.5384C118.608 80.5384 109.433 83.3216 101.629 88.536C93.8251 93.7505 87.7426 101.162 84.1508 109.833C80.559 118.505 79.6193 128.046 81.4503 137.252C83.2814 146.457 87.8011 154.913 94.4379 161.55C101.075 168.186 109.53 172.706 118.736 174.537C127.941 176.368 137.483 175.429 146.154 171.837C154.826 168.245 162.237 162.163 167.452 154.359C172.666 146.555 175.449 137.38 175.449 127.994C175.438 115.411 170.435 103.347 161.538 94.4499C152.64 85.5527 140.576 80.5494 127.994 80.5384Z" fill="#A5A5A5"/>
<path d="M127.994 36.3328C146.123 36.3328 163.844 41.7086 178.918 51.7805C193.991 61.8523 205.74 76.1678 212.677 92.9166C219.615 109.665 221.43 128.095 217.893 145.876C214.357 163.656 205.627 179.989 192.808 192.808C179.989 205.627 163.656 214.357 145.876 217.893C128.095 221.43 109.665 219.615 92.9166 212.677C76.1678 205.74 61.8523 193.991 51.7805 178.918C41.7087 163.844 36.3329 146.123 36.3329 127.994C36.3329 115.957 38.7037 104.037 43.3101 92.9166C47.9165 81.7958 54.6682 71.6912 63.1797 63.1797C71.6912 54.6682 81.7958 47.9165 92.9166 43.3101C104.037 38.7037 115.957 36.3328 127.994 36.3328ZM127.994 179.615C138.204 179.615 148.184 176.588 156.673 170.916C165.162 165.243 171.779 157.181 175.686 147.749C179.593 138.316 180.615 127.936 178.624 117.923C176.632 107.909 171.715 98.7111 164.496 91.4916C157.276 84.2722 148.078 79.3557 138.065 77.3639C128.051 75.372 117.672 76.3943 108.239 80.3014C98.8063 84.2086 90.7441 90.825 85.0718 99.3142C79.3996 107.803 76.372 117.784 76.372 127.994C76.383 141.681 81.8253 154.805 91.5038 164.484C101.182 174.162 114.306 179.604 127.994 179.615ZM127.994 28C108.217 28 88.8841 33.8645 72.4402 44.852C55.9963 55.8394 43.1799 71.4563 35.6116 89.7278C28.0433 107.999 26.0631 128.105 29.9214 147.502C33.7797 166.898 43.3032 184.716 57.2875 198.7C71.2719 212.684 89.0891 222.208 108.486 226.066C127.883 229.924 147.988 227.944 166.26 220.376C184.531 212.808 200.148 199.991 211.135 183.547C222.123 167.103 227.987 147.771 227.987 127.994C227.987 101.474 217.452 76.0399 198.7 57.2875C179.948 38.535 154.514 28 127.994 28ZM127.994 171.283C119.432 171.283 111.063 168.744 103.944 163.987C96.8249 159.23 91.2764 152.47 88 144.56C84.7236 136.65 83.8663 127.946 85.5366 119.548C87.2069 111.151 91.3298 103.438 97.3839 97.3838C103.438 91.3297 111.151 87.2069 119.549 85.5365C127.946 83.8662 136.65 84.7235 144.56 87.9999C152.47 91.2764 159.231 96.8248 163.987 103.944C168.744 111.062 171.283 119.432 171.283 127.994C171.283 139.475 166.722 150.485 158.604 158.604C150.485 166.722 139.475 171.283 127.994 171.283Z" fill="black"/>
<path d="M127.994 223.821C117.861 223.83 107.791 222.227 98.1621 219.071L108.286 171.116C114.472 173.97 121.202 175.449 128.014 175.449C134.826 175.449 141.557 173.97 147.742 171.116L157.867 219.071C148.224 222.231 138.14 223.834 127.994 223.821Z" fill="#E7E7E7"/>
<path d="M144.659 176.824L152.992 216.196C136.644 220.801 119.343 220.801 102.995 216.196L111.328 176.824C122.127 180.541 133.86 180.541 144.659 176.824ZM150.659 164.825C143.857 169.038 136.015 171.271 128.014 171.271C120.014 171.271 112.171 169.038 105.37 164.825L93.3291 221.821C115.705 230.06 140.283 230.06 162.658 221.821L150.659 164.825Z" fill="black"/>
<path d="M147.701 84.8715C141.516 82.0171 134.785 80.5389 127.973 80.5389C121.161 80.5389 114.43 82.0171 108.245 84.8715L98.1621 36.9162C117.547 30.5934 138.44 30.5934 157.825 36.9162L147.701 84.8715Z" fill="#E7E7E7"/>
<path d="M127.994 36.3329C136.446 36.3274 144.859 37.4912 152.992 39.791L144.659 79.1635C133.86 75.4462 122.127 75.4462 111.328 79.1635L102.995 39.791C111.129 37.4912 119.541 36.3274 127.994 36.3329ZM127.994 28C116.165 27.989 104.428 30.0768 93.3291 34.1663L105.328 91.1211C112.13 86.9074 119.972 84.6751 127.973 84.6751C135.974 84.6751 143.816 86.9074 150.617 91.1211L162.658 34.1663C151.559 30.0768 139.822 27.989 127.994 28Z" fill="black"/>
<path d="M171.116 147.701C173.971 141.516 175.449 134.785 175.449 127.973C175.449 121.161 173.971 114.43 171.116 108.245L219.072 98.1206C225.394 117.506 225.394 138.398 219.072 157.784L171.116 147.701Z" fill="#E7E7E7"/>
<path d="M216.196 102.995C220.801 119.343 220.801 136.645 216.196 152.992L176.824 144.659C180.541 133.86 180.541 122.128 176.824 111.328L216.196 102.995ZM221.779 93.2876L164.825 105.329C169.038 112.13 171.271 119.972 171.271 127.973C171.271 135.974 169.038 143.816 164.825 150.617L221.779 162.617C230.018 140.241 230.018 115.663 221.779 93.2876Z" fill="black"/>
<path d="M36.9159 157.825C30.5931 138.44 30.5931 117.547 36.9159 98.1624L84.8713 108.287C82.0169 114.472 80.5386 121.203 80.5386 128.015C80.5386 134.827 82.0169 141.557 84.8713 147.743L36.9159 157.825Z" fill="#E7E7E7"/>
<path d="M39.7908 102.995L79.1633 111.328C75.446 122.128 75.446 133.86 79.1633 144.659L39.7908 152.992C35.1861 136.645 35.1861 119.343 39.7908 102.995ZM34.1661 93.3292C25.9277 115.705 25.9277 140.283 34.1661 162.658L91.1209 150.659C86.9072 143.858 84.6749 136.015 84.6749 128.015C84.6749 120.014 86.9072 112.172 91.1209 105.37L34.1661 93.3292Z" fill="black"/>
</g>
<defs>
<clipPath id="clip0_266_15">
<rect width="200" height="200" fill="white" transform="translate(28 28)"/>
</clipPath>
</defs>
</svg>
