<svg width="842" height="333" viewBox="0 0 842 333" fill="none" xmlns="http://www.w3.org/2000/svg">
<ellipse cx="773.12" cy="68.1199" rx="68.1199" ry="68.1199" fill="black" style="fill:black;fill-opacity:1;"/>
<path d="M773.118 105.586C793.81 105.586 810.584 88.812 810.584 68.1202C810.584 47.4284 793.81 30.6543 773.118 30.6543C752.426 30.6543 735.652 47.4284 735.652 68.1202C735.652 74.1134 737.06 79.7783 739.562 84.8018C740.227 86.1369 740.448 87.6628 740.063 89.1035L737.831 97.4435C736.862 101.064 740.175 104.376 743.795 103.407L752.135 101.176C753.576 100.791 755.102 101.012 756.437 101.677C761.46 104.179 767.125 105.586 773.118 105.586Z" fill="white" style="fill:white;fill-opacity:1;"/>
<ellipse cx="420.983" cy="68.1199" rx="68.1199" ry="68.1199" fill="#270A09" style="fill:#270A09;fill:color(display-p3 0.1529 0.0392 0.0353);fill-opacity:1;"/>
<path d="M420.982 105.586C441.673 105.586 458.448 88.812 458.448 68.1202C458.448 47.4284 441.673 30.6543 420.982 30.6543C400.29 30.6543 383.516 47.4284 383.516 68.1202C383.516 74.1134 384.923 79.7783 387.425 84.8018C388.09 86.1369 388.311 87.6628 387.926 89.1035L385.694 97.4435C384.726 101.064 388.038 104.376 391.658 103.407L399.998 101.176C401.439 100.791 402.965 101.012 404.3 101.677C409.324 104.179 414.988 105.586 420.982 105.586Z" fill="#F3BB47" style="fill:#F3BB47;fill:color(display-p3 0.9529 0.7333 0.2784);fill-opacity:1;"/>
<ellipse cx="68.1199" cy="68.1199" rx="68.1199" ry="68.1199" fill="black" style="fill:black;fill-opacity:1;"/>
<path d="M68.1222 105.586C88.814 105.586 105.588 88.812 105.588 68.1202C105.588 47.4284 88.814 30.6543 68.1222 30.6543C47.4303 30.6543 30.6562 47.4284 30.6562 68.1202C30.6562 74.1134 32.0635 79.7783 34.5657 84.8018C35.2306 86.1369 35.4519 87.6628 35.0664 89.1035L32.8349 97.4435C31.8662 101.064 35.1785 104.376 38.7989 103.407L47.139 101.176C48.5797 100.791 50.1056 101.012 51.4406 101.677C56.4642 104.179 62.129 105.586 68.1222 105.586Z" fill="#985DF6" style="fill:#985DF6;fill:color(display-p3 0.5961 0.3647 0.9647);fill-opacity:1;"/>
<ellipse cx="244.55" cy="68.1199" rx="68.1199" ry="68.1199" fill="black" style="fill:black;fill-opacity:1;"/>
<path d="M244.548 105.586C265.24 105.586 282.014 88.812 282.014 68.1202C282.014 47.4284 265.24 30.6543 244.548 30.6543C223.856 30.6543 207.082 47.4284 207.082 68.1202C207.082 74.1134 208.489 79.7783 210.991 84.8018C211.656 86.1369 211.878 87.6628 211.492 89.1035L209.261 97.4435C208.292 101.064 211.604 104.376 215.225 103.407L223.565 101.176C225.006 100.791 226.531 101.012 227.866 101.677C232.89 104.179 238.555 105.586 244.548 105.586Z" fill="#E98493" style="fill:#E98493;fill:color(display-p3 0.9137 0.5176 0.5765);fill-opacity:1;"/>
<ellipse cx="420.983" cy="264.304" rx="68.1199" ry="68.1199" fill="#F3B34E" style="fill:#F3B34E;fill:color(display-p3 0.9529 0.7020 0.3059);fill-opacity:1;"/>
<path d="M420.982 301.771C441.673 301.771 458.448 284.997 458.448 264.305C458.448 243.613 441.673 226.839 420.982 226.839C400.29 226.839 383.516 243.613 383.516 264.305C383.516 270.298 384.923 275.963 387.425 280.986C388.09 282.321 388.311 283.847 387.926 285.288L385.694 293.628C384.726 297.249 388.038 300.561 391.658 299.592L399.998 297.361C401.439 296.975 402.965 297.196 404.3 297.861C409.324 300.363 414.988 301.771 420.982 301.771Z" fill="black" style="fill:black;fill-opacity:1;"/>
<ellipse cx="68.1199" cy="264.304" rx="68.1199" ry="68.1199" fill="#985DF6" style="fill:#985DF6;fill:color(display-p3 0.5961 0.3647 0.9647);fill-opacity:1;"/>
<path d="M68.1222 301.771C88.814 301.771 105.588 284.997 105.588 264.305C105.588 243.613 88.814 226.839 68.1222 226.839C47.4303 226.839 30.6562 243.613 30.6562 264.305C30.6562 270.298 32.0635 275.963 34.5657 280.986C35.2306 282.321 35.4519 283.847 35.0664 285.288L32.8349 293.628C31.8662 297.249 35.1785 300.561 38.7989 299.592L47.139 297.361C48.5797 296.975 50.1056 297.196 51.4406 297.861C56.4642 300.363 62.129 301.771 68.1222 301.771Z" fill="black" style="fill:black;fill-opacity:1;"/>
<ellipse cx="244.55" cy="264.304" rx="68.1199" ry="68.1199" fill="#E98493" style="fill:#E98493;fill:color(display-p3 0.9137 0.5176 0.5765);fill-opacity:1;"/>
<path d="M244.548 301.771C265.24 301.771 282.014 284.997 282.014 264.305C282.014 243.613 265.24 226.839 244.548 226.839C223.856 226.839 207.082 243.613 207.082 264.305C207.082 270.298 208.489 275.963 210.991 280.986C211.656 282.321 211.878 283.847 211.492 285.288L209.261 293.628C208.292 297.249 211.604 300.561 215.225 299.592L223.565 297.361C225.006 296.975 226.531 297.196 227.866 297.861C232.89 300.363 238.555 301.771 244.548 301.771Z" fill="black" style="fill:black;fill-opacity:1;"/>
<ellipse cx="597.12" cy="264.12" rx="68.1199" ry="68.1199" fill="#E5E5E5" style="fill:#E5E5E5;fill:color(display-p3 0.8980 0.8980 0.8980);fill-opacity:1;"/>
<path d="M597.118 301.586C617.81 301.586 634.584 284.812 634.584 264.12C634.584 243.428 617.81 226.654 597.118 226.654C576.426 226.654 559.652 243.428 559.652 264.12C559.652 270.113 561.06 275.778 563.562 280.802C564.227 282.137 564.448 283.663 564.063 285.104L561.831 293.443C560.862 297.064 564.175 300.376 567.795 299.407L576.135 297.176C577.576 296.791 579.102 297.012 580.437 297.677C585.46 300.179 591.125 301.586 597.118 301.586Z" fill="black" style="fill:black;fill-opacity:1;"/>
<ellipse cx="597.12" cy="68.1199" rx="68.1199" ry="68.1199" fill="black" style="fill:black;fill-opacity:1;"/>
<path d="M597.122 105.586C617.814 105.586 634.588 88.812 634.588 68.1202C634.588 47.4284 617.814 30.6543 597.122 30.6543C576.43 30.6543 559.656 47.4284 559.656 68.1202C559.656 74.1134 561.064 79.7783 563.566 84.8018C564.231 86.1369 564.452 87.6628 564.066 89.1035L561.835 97.4435C560.866 101.064 564.178 104.376 567.799 103.407L576.139 101.176C577.58 100.791 579.106 101.012 580.441 101.677C585.464 104.179 591.129 105.586 597.122 105.586Z" fill="#E5E5E5" style="fill:#E5E5E5;fill:color(display-p3 0.8980 0.8980 0.8980);fill-opacity:1;"/>
</svg>
