<svg width="100" height="57" viewBox="0 0 100 57" fill="none" xmlns="http://www.w3.org/2000/svg">
<path d="M100 44.8198C99.9989 43.3062 99.6401 41.8178 98.9573 40.4944C98.2745 39.1709 97.2901 38.056 96.0966 37.2542C96.4499 36.261 96.6666 35.1925 96.6666 34.063C96.6625 31.882 95.917 29.7779 94.5705 28.1472C93.2239 26.5165 91.3694 25.4719 89.3564 25.2102C89.7498 24.0521 89.9998 22.8186 89.9998 21.5135C89.9998 18.6606 88.9462 15.9246 87.0708 13.9073C85.1954 11.89 82.6518 10.7567 79.9995 10.7567C78.6829 10.7567 77.4328 11.0472 76.2828 11.5456C75.7158 9.26644 74.4665 7.2517 72.7282 5.81288C70.9899 4.37405 68.8593 3.59128 66.6659 3.58558C63.7658 3.58558 61.1791 4.93376 59.3524 7.05284C57.9457 2.94376 54.3056 0 49.9989 0C45.6921 0 42.052 2.94376 40.6453 7.05284C39.7157 5.96198 38.5857 5.09056 37.3268 4.49374C36.0679 3.89691 34.7076 3.58767 33.3318 3.58558C31.1387 3.59086 29.0083 4.37354 27.2705 5.81249C25.5326 7.25144 24.2841 9.26642 23.7183 11.5456C22.5367 11.0285 21.2738 10.7607 19.9982 10.7567C17.346 10.7567 14.8024 11.89 12.9269 13.9073C11.0515 15.9246 9.99795 18.6606 9.99795 21.5135C9.99795 22.8186 10.248 24.0521 10.6413 25.2102C8.6283 25.4719 6.77379 26.5165 5.42727 28.1472C4.08074 29.7779 3.3352 31.882 3.33113 34.063C3.33113 35.1925 3.5478 36.261 3.90114 37.2542C2.71586 38.051 1.73685 39.1569 1.05491 40.4693C0.372967 41.7817 0.0101855 43.2581 0.000211376 44.7615C-0.0097627 46.265 0.333394 47.7468 0.997852 49.0695C1.66231 50.3922 15.493 50.1592 15.493 50.1592C15.493 50.1592 24.4816 50.7754 28.4917 49.4954C32.5018 48.2153 36.1252 45.8955 36.9519 45.2321C38.2119 50.1157 43.572 53.7837 49.9989 53.7837C54.319 53.7837 59.3257 52.5431 61.7591 49.9723C63.3458 54.4865 69.0226 57 75.1261 57C76.4714 57 78.3325 56.5279 80.1333 55.9378C84.0033 54.6696 88.1115 54.2817 92.1805 54.4509C94.8729 54.5629 97.2078 54.187 96.1999 52.3208C97.3657 51.5117 98.3243 50.4013 98.9881 49.0909C99.6519 47.7805 99.9999 46.3121 100 44.8198Z" fill="white"/>
</svg>
