<svg width="256" height="256" viewBox="0 0 194 164" fill="none" xmlns="http://www.w3.org/2000/svg">
<path fill-rule="evenodd" clip-rule="evenodd" d="M99.7212 162.312C134.849 161.699 162.983 141.622 162.562 117.471L161.799 73.7398L34.5905 75.9602L35.3539 119.691C35.7754 143.843 64.5937 162.925 99.7212 162.312Z" fill="black"/>
<path fill-rule="evenodd" clip-rule="evenodd" d="M32.0105 3.46917C49.5743 3.16259 64.1162 20.3126 64.4908 41.7748L65.1691 80.6355L33.3671 81.1906C15.8034 81.4971 1.26142 64.3471 0.886795 42.885C0.512172 21.4228 14.4467 3.77575 32.0105 3.46917Z" fill="#A259FF"/>
<path fill-rule="evenodd" clip-rule="evenodd" d="M158.966 3.41169C141.402 3.71827 127.459 20.8759 127.823 41.7343L128.483 79.5019L160.285 78.9468C177.848 78.6402 191.791 61.4826 191.427 40.6241C191.063 19.7657 176.53 3.10511 158.966 3.41169Z" fill="#FFB031"/>
<path fill-rule="evenodd" clip-rule="evenodd" d="M95.3919 5.08845C112.956 4.78187 127.487 21.3154 127.848 42.0172L128.502 79.501L64.8984 80.6113L64.2441 43.1274C63.8828 22.4256 77.8281 5.39503 95.3919 5.08845Z" fill="#F97D92"/>
</svg>
