<svg width="256" height="256" viewBox="0 0 256 256" fill="none" xmlns="http://www.w3.org/2000/svg">
<path fill-rule="evenodd" clip-rule="evenodd" d="M130.721 207.312C165.849 206.699 193.983 186.622 193.562 162.471L192.799 118.74L65.5905 120.96L66.3539 164.691C66.7754 188.843 95.5937 207.925 130.721 207.312Z" fill="black"/>
<path fill-rule="evenodd" clip-rule="evenodd" d="M63.0105 48.4692C80.5743 48.1626 95.1162 65.3126 95.4908 86.7748L96.1691 125.635L64.3671 126.191C46.8034 126.497 32.2614 109.347 31.8868 87.885C31.5122 66.4228 45.4467 48.7757 63.0105 48.4692Z" fill="#A259FF"/>
<path fill-rule="evenodd" clip-rule="evenodd" d="M189.966 48.4107C172.402 48.7173 158.459 65.8749 158.823 86.7334L159.483 124.501L191.285 123.946C208.848 123.639 222.791 106.482 222.427 85.6232C222.063 64.7647 207.53 48.1041 189.966 48.4107Z" fill="#FFB031"/>
<path fill-rule="evenodd" clip-rule="evenodd" d="M126.388 50.0875C143.952 49.7809 158.483 66.3145 158.844 87.0162L159.499 124.5L95.8945 125.61L95.2402 88.1264C94.8789 67.4247 108.824 50.394 126.388 50.0875Z" fill="#F97D92"/>
</svg>
