<svg width="256" height="256" viewBox="0 0 256 256" fill="none" xmlns="http://www.w3.org/2000/svg">
<rect width="256" height="256" fill="white"/>
<path fill-rule="evenodd" clip-rule="evenodd" d="M172.93 174.373C170.193 187.196 158.761 196.74 145.283 196.74H86.2709C70.6968 196.74 58 184.044 58 168.469V109.457C58 94.9661 68.9927 82.9658 83.0676 81.3672C85.7943 68.6116 97.1666 59 110.717 59H169.729C185.303 59 198 71.6969 198 87.2711V146.283C198 160.775 187.006 172.776 172.931 174.373H172.93Z" fill="#FF6161"/>
<path d="M169.729 71.8389H110.717C102.194 71.8389 95.2849 78.7479 95.2849 87.2705V146.283C95.2849 154.805 102.194 161.714 110.717 161.714H169.729C178.251 161.714 185.16 154.805 185.16 146.283V87.2705C185.16 78.7479 178.251 71.8389 169.729 71.8389Z" fill="#EFEFEF"/>
<path fill-rule="evenodd" clip-rule="evenodd" d="M159.455 174.554C157.082 180.039 151.612 183.901 145.283 183.901H86.2708C77.7833 183.901 70.8391 176.957 70.8391 168.47V109.458C70.8391 102.29 75.7928 96.222 82.4459 94.5093V146.284C82.4459 161.858 95.1428 174.554 110.717 174.554H159.455H159.455Z" fill="#222222"/>
</svg>
