<svg width="1000" height="1000" viewBox="0 0 1000 1000" fill="none" xmlns="http://www.w3.org/2000/svg">
<rect width="1000" height="1000" fill="white"/>
<path d="M246.7 608V392H337.9C353.3 392 366.7 394.6 378.1 399.8C389.5 405 398.2 412.3 404.2 421.7C410.4 431.1 413.5 442.1 413.5 454.7C413.5 467.1 410.4 478 404.2 487.4C398.2 496.8 389.5 504.1 378.1 509.3C366.7 514.5 353.3 517.1 337.9 517.1H277.3V487.4H336.7C349.3 487.4 358.9 484.5 365.5 478.7C372.3 472.9 375.7 464.9 375.7 454.7C375.7 444.5 372.4 436.7 365.8 431.3C359.2 425.7 349.5 422.9 336.7 422.9H285.7V608H246.7ZM370.3 608L274 497.6H317.8L424.3 608H370.3ZM491.373 611C480.773 611 471.573 608.8 463.773 604.4C456.173 599.8 450.273 593.6 446.073 585.8C442.073 578 440.073 569.2 440.073 559.4V455H477.873V551.6C477.873 561 480.173 568.1 484.773 572.9C489.573 577.7 496.273 580.1 504.873 580.1C512.673 580.1 519.473 578.3 525.273 574.7C531.273 571.1 535.973 566.1 539.373 559.7C542.973 553.1 544.773 545.7 544.773 537.5L548.673 574.1C543.673 585.3 536.173 594.3 526.173 601.1C516.373 607.7 504.773 611 491.373 611ZM545.973 608V572H544.773V455H582.873V608H545.973ZM622.928 608V389.9H660.728V608H622.928ZM721.628 608L652.028 528.5L719.528 455H765.128L687.128 535.4L689.228 521.3L768.128 608H721.628Z" fill="black"/>
</svg>
